<?xml version="1.0" standalone="no"?><!DOCTYPE svg PUBLIC "-//W3C//DTD SVG 1.1//EN" "http://www.w3.org/Graphics/SVG/1.1/DTD/svg11.dtd"><svg t="1498102164138" class="icon" style="" viewBox="0 0 1024 1024" version="1.1" xmlns="http://www.w3.org/2000/svg" p-id="3477" xmlns:xlink="http://www.w3.org/1999/xlink" width="32" height="32"><defs><style type="text/css"></style></defs><path d="M509.269333 36.394667C251.946667 36.394667 42.666667 219.477333 42.666667 444.416c0 225.066667 209.322667 408.149333 466.602667 408.149333 49.962667 0 99.242667-7.168 147.157333-21.162667l159.232 156.586667 0.042667-235.818667c101.888-77.738667 160.170667-189.397333 160.170667-307.712C975.872 219.477333 766.592 36.394667 509.269333 36.394667zM788.608 730.453333l-6.912 4.992 0 172.16-115.925333-114.090667-9.813333 3.072c-47.616 15.018667-96.853333 22.656-146.688 22.656-238.549333 0-432.810667-168.234667-432.810667-374.912 0-206.592 194.176-374.741333 432.810667-374.741333 238.592 0 432.896 168.149333 432.896 374.741333C942.122667 554.709333 886.186667 658.944 788.608 730.453333z" p-id="3478"></path><path d="M251.989333 423.765333m-62.677333 0a1.469 1.469 0 1 0 125.354667 0 1.469 1.469 0 1 0-125.354667 0Z" p-id="3479"></path><path d="M510.677333 426.453333m-62.677333 0a1.469 1.469 0 1 0 125.354667 0 1.469 1.469 0 1 0-125.354667 0Z" p-id="3480"></path><path d="M766.677333 426.453333m-62.677333 0a1.469 1.469 0 1 0 125.354667 0 1.469 1.469 0 1 0-125.354667 0Z" p-id="3481"></path></svg>