<?xml version="1.0" standalone="no"?><!DOCTYPE svg PUBLIC "-//W3C//DTD SVG 1.1//EN" "http://www.w3.org/Graphics/SVG/1.1/DTD/svg11.dtd"><svg t="1498028489155" class="icon" style="" viewBox="0 0 1024 1024" version="1.1" xmlns="http://www.w3.org/2000/svg" p-id="4829" xmlns:xlink="http://www.w3.org/1999/xlink" width="32" height="32"><defs><style type="text/css"></style></defs><path d="M945.6 540.096c0 22.4-6.464 35.904-24 38.272-1.216 0.256-2.944 0.512-4.544 0.512l-94.72 0c0 0 0 216 0 300.928 0 37.952-19.264 54.848-40.512 61.952-3.52 1.088-6.784 2.112-9.984 2.624L256.64 944.384c-3.52-0.576-6.784-1.6-9.984-2.624-21.248-7.104-40.512-23.936-40.512-61.952 0-84.928 0-300.928 0-300.928s-86.08 0.512-99.008 0C86.144 578.112 78.4 564.416 78.4 540.096c0-30.848 5.248-37.184 28.736-61.44 28.032-29.248 362.368-378.432 362.368-378.432s18.496-21.376 44.8-20.608C540.8 78.848 558.784 100.224 558.784 100.224s78.784 84.608 163.072 174.08L721.856 192.832c0 0 0.256-30.592 43.52-37.184 4.992-0.768 10.752-1.088 17.024-1.088l9.984 0c6.016 0 11.776 0.256 16.704 1.088 43.584 6.272 43.776 37.184 43.776 37.184l0 218.88c33.216 34.56 57.536 59.904 64.256 67.008C940.608 502.912 945.6 509.248 945.6 540.096z" p-id="4830"></path><path d="M401.408 748.992l154.368-198.784L388.224 562.816l-2.56-25.408-2.624-25.6 255.616-19.2 2.432 23.616 2.432 23.616-157.312 202.112 176.064-13.248 2.56 25.408 2.624 25.6-260.864 19.584-2.56-25.216L401.408 748.992z" p-id="4831"></path></svg>